<svg width="219" height="46" viewBox="0 0 219 46" fill="none" xmlns="http://www.w3.org/2000/svg">
<path d="M45.34 20.224C45.136 20.224 44.962 20.11 44.818 19.882C44.674 19.666 44.602 19.414 44.602 19.126C44.602 19.006 44.626 18.898 44.674 18.802C44.734 18.706 44.824 18.634 44.944 18.586C45.076 18.526 45.208 18.472 45.34 18.424C45.484 18.364 45.628 18.304 45.772 18.244C45.736 18.148 45.706 18.034 45.682 17.902C45.658 17.77 45.646 17.614 45.646 17.434C45.646 17.302 45.67 17.05 45.718 16.678C45.778 16.294 45.856 15.838 45.952 15.31C46.048 14.782 46.15 14.224 46.258 13.636C46.378 13.036 46.492 12.454 46.6 11.89C46.72 11.314 46.828 10.798 46.924 10.342C47.14 9.358 47.404 8.476 47.716 7.696C48.04 6.916 48.472 6.304 49.012 5.86C49.564 5.404 50.29 5.176 51.19 5.176C51.874 5.176 52.546 5.326 53.206 5.626C53.878 5.926 54.484 6.352 55.024 6.904C55.576 7.444 56.014 8.08 56.338 8.812C56.662 9.544 56.824 10.342 56.824 11.206C56.824 11.95 56.65 12.658 56.302 13.33C55.954 13.99 55.486 14.614 54.898 15.202C54.31 15.79 53.638 16.336 52.882 16.84C52.138 17.344 51.358 17.806 50.542 18.226C49.738 18.634 48.946 18.994 48.166 19.306C47.386 19.63 46.666 19.9 46.006 20.116C45.922 20.14 45.82 20.164 45.7 20.188C45.58 20.212 45.46 20.224 45.34 20.224ZM47.05 17.74C48.094 17.308 49.108 16.864 50.092 16.408C51.088 15.952 51.982 15.448 52.774 14.896C53.566 14.332 54.196 13.702 54.664 13.006C55.132 12.31 55.366 11.512 55.366 10.612C55.366 10.144 55.258 9.688 55.042 9.244C54.826 8.8 54.526 8.404 54.142 8.056C53.77 7.696 53.344 7.414 52.864 7.21C52.396 6.994 51.904 6.886 51.388 6.886C50.92 6.886 50.5 7.006 50.128 7.246C49.768 7.474 49.456 7.882 49.192 8.47C48.928 9.058 48.7 9.874 48.508 10.918C48.364 11.566 48.214 12.268 48.058 13.024C47.902 13.768 47.746 14.482 47.59 15.166C47.446 15.838 47.326 16.408 47.23 16.876C47.134 17.332 47.08 17.596 47.068 17.668C47.068 17.692 47.062 17.716 47.05 17.74ZM62.2801 19.18C61.5721 19.18 61.0141 18.91 60.6061 18.37C60.1981 17.83 59.9941 17.128 59.9941 16.264C59.9941 15.952 60.0361 15.622 60.1201 15.274C60.2161 14.914 60.3361 14.59 60.4801 14.302C60.3961 14.218 60.3301 14.104 60.2821 13.96C60.2341 13.804 60.2101 13.612 60.2101 13.384C60.2101 12.676 60.3301 12.028 60.5701 11.44C60.8101 10.852 61.1281 10.342 61.5241 9.91C61.9201 9.466 62.3581 9.124 62.8381 8.884C63.3301 8.644 63.8281 8.524 64.3321 8.524C65.1601 8.524 65.8321 8.824 66.3481 9.424C66.8641 10.012 67.1221 10.912 67.1221 12.124C67.1221 12.76 67.0261 13.408 66.8341 14.068C66.6541 14.728 66.4021 15.364 66.0781 15.976C65.7661 16.588 65.4001 17.134 64.9801 17.614C64.5721 18.094 64.1341 18.478 63.6661 18.766C63.2101 19.042 62.7481 19.18 62.2801 19.18ZM61.6681 13.69C61.7401 13.786 61.7761 13.912 61.7761 14.068C61.7761 14.248 61.7401 14.428 61.6681 14.608C61.6081 14.788 61.5421 15.034 61.4701 15.346C61.3981 15.658 61.3621 16.102 61.3621 16.678C61.3621 17.254 61.5901 17.542 62.0461 17.542C62.5501 17.542 63.0181 17.344 63.4501 16.948C63.8821 16.54 64.2661 16.018 64.6021 15.382C64.9381 14.746 65.1961 14.068 65.3761 13.348C65.5681 12.616 65.6641 11.926 65.6641 11.278C65.6641 10.858 65.5861 10.564 65.4301 10.396C65.2741 10.216 64.9921 10.126 64.5841 10.126C64.1641 10.126 63.7261 10.27 63.2701 10.558C62.8261 10.834 62.4541 11.212 62.1541 11.692C61.8541 12.172 61.7041 12.712 61.7041 13.312C61.7041 13.444 61.6921 13.57 61.6681 13.69ZM71.5262 19.18C70.8182 19.18 70.2602 18.91 69.8522 18.37C69.4442 17.83 69.2402 17.128 69.2402 16.264C69.2402 15.952 69.2822 15.622 69.3662 15.274C69.4622 14.914 69.5822 14.59 69.7262 14.302C69.6422 14.218 69.5762 14.104 69.5282 13.96C69.4802 13.804 69.4562 13.612 69.4562 13.384C69.4562 12.676 69.5762 12.028 69.8162 11.44C70.0562 10.852 70.3742 10.342 70.7702 9.91C71.1662 9.466 71.6042 9.124 72.0842 8.884C72.5762 8.644 73.0742 8.524 73.5782 8.524C74.4062 8.524 75.0782 8.824 75.5942 9.424C76.1102 10.012 76.3682 10.912 76.3682 12.124C76.3682 12.76 76.2722 13.408 76.0802 14.068C75.9002 14.728 75.6482 15.364 75.3242 15.976C75.0122 16.588 74.6462 17.134 74.2262 17.614C73.8182 18.094 73.3802 18.478 72.9122 18.766C72.4562 19.042 71.9942 19.18 71.5262 19.18ZM70.9142 13.69C70.9862 13.786 71.0222 13.912 71.0222 14.068C71.0222 14.248 70.9862 14.428 70.9142 14.608C70.8542 14.788 70.7882 15.034 70.7162 15.346C70.6442 15.658 70.6082 16.102 70.6082 16.678C70.6082 17.254 70.8362 17.542 71.2922 17.542C71.7962 17.542 72.2642 17.344 72.6962 16.948C73.1282 16.54 73.5122 16.018 73.8482 15.382C74.1842 14.746 74.4422 14.068 74.6222 13.348C74.8142 12.616 74.9102 11.926 74.9102 11.278C74.9102 10.858 74.8322 10.564 74.6762 10.396C74.5202 10.216 74.2382 10.126 73.8302 10.126C73.4102 10.126 72.9722 10.27 72.5162 10.558C72.0722 10.834 71.7002 11.212 71.4002 11.692C71.1002 12.172 70.9502 12.712 70.9502 13.312C70.9502 13.444 70.9382 13.57 70.9142 13.69ZM85.3669 9.946C85.6909 9.166 85.9969 8.362 86.2849 7.534C86.5849 6.706 86.8549 5.86 87.0949 4.996C87.1669 4.756 87.2749 4.564 87.4189 4.42C87.5749 4.264 87.7549 4.186 87.9589 4.186C88.1029 4.186 88.2229 4.24 88.3189 4.348C88.4269 4.456 88.4809 4.6 88.4809 4.78C88.4809 5.008 88.3909 5.404 88.2109 5.968C88.0429 6.532 87.8269 7.246 87.5629 8.11C87.3109 8.974 87.0529 9.97 86.7889 11.098C86.5369 12.214 86.3209 13.45 86.1409 14.806C85.9729 16.162 85.8889 17.608 85.8889 19.144C85.8889 19.48 85.8169 19.756 85.6729 19.972C85.5289 20.2 85.3549 20.314 85.1509 20.314C85.0309 20.314 84.9169 20.284 84.8089 20.224C84.7009 20.164 84.6049 20.02 84.5209 19.792C84.4489 19.576 84.3889 19.234 84.3409 18.766C84.2929 18.286 84.2689 17.638 84.2689 16.822C84.2689 16.198 84.3049 15.52 84.3769 14.788C83.8249 15.784 83.2249 16.654 82.5769 17.398C81.9409 18.13 81.3229 18.694 80.7229 19.09C80.1349 19.486 79.6309 19.684 79.2109 19.684C78.6949 19.684 78.2749 19.51 77.9509 19.162C77.6389 18.826 77.4829 18.322 77.4829 17.65C77.4829 17.062 77.6209 16.456 77.8969 15.832C78.1729 15.208 78.5389 14.596 78.9949 13.996C79.4509 13.384 79.9549 12.808 80.5069 12.268C81.0589 11.728 81.6109 11.254 82.1629 10.846C82.7269 10.426 83.2489 10.102 83.7289 9.874C84.2089 9.634 84.5989 9.514 84.8989 9.514C85.0189 9.514 85.1269 9.556 85.2229 9.64C85.3189 9.724 85.3669 9.826 85.3669 9.946ZM85.1329 10.504C85.0489 10.588 84.9469 10.672 84.8269 10.756C84.7069 10.84 84.5749 10.93 84.4309 11.026C83.9029 11.398 83.3209 11.83 82.6849 12.322C82.0609 12.802 81.4609 13.33 80.8849 13.906C80.3209 14.47 79.8589 15.064 79.4989 15.688C79.1389 16.312 78.9589 16.954 78.9589 17.614C78.9589 17.902 79.1029 18.046 79.3909 18.046C79.7869 18.046 80.2189 17.86 80.6869 17.488C81.1669 17.104 81.6589 16.576 82.1629 15.904C82.6669 15.22 83.1709 14.422 83.6749 13.51C84.1789 12.586 84.6649 11.584 85.1329 10.504ZM92.9072 19.72C91.9833 19.72 91.2573 19.42 90.7293 18.82C90.2133 18.208 89.9553 17.356 89.9553 16.264C89.9553 15.592 90.0453 14.806 90.2253 13.906C90.4173 12.994 90.6573 12.034 90.9453 11.026C91.2453 10.006 91.5693 8.998 91.9173 8.002C92.2653 7.006 92.6013 6.082 92.9253 5.23C93.2613 4.366 93.5553 3.646 93.8073 3.07C93.9513 2.746 94.1553 2.584 94.4193 2.584C94.7793 2.584 94.9593 2.806 94.9593 3.25C94.9593 3.394 94.8933 3.688 94.7613 4.132C94.6293 4.576 94.4553 5.128 94.2393 5.788C94.0233 6.436 93.7893 7.156 93.5373 7.948C93.2853 8.74 93.0273 9.556 92.7633 10.396C92.5113 11.224 92.2773 12.046 92.0613 12.862C91.8453 13.666 91.6713 14.422 91.5393 15.13C91.4073 15.838 91.3413 16.444 91.3413 16.948C91.3413 17.272 91.4253 17.53 91.5933 17.722C91.7733 17.902 92.0133 17.992 92.3133 17.992C92.8653 17.992 93.4173 17.884 93.9693 17.668C94.5333 17.44 95.0733 17.164 95.5893 16.84C96.1053 16.504 96.5733 16.174 96.9933 15.85C97.4253 15.514 97.7913 15.238 98.0913 15.022C98.3913 14.794 98.6013 14.68 98.7213 14.68C98.9853 14.68 99.1173 14.824 99.1173 15.112C99.1173 15.208 99.0213 15.388 98.8293 15.652C98.6373 15.904 98.3793 16.204 98.0553 16.552C97.7313 16.9 97.3533 17.26 96.9213 17.632C96.5013 17.992 96.0573 18.334 95.5893 18.658C95.1333 18.97 94.6713 19.222 94.2033 19.414C93.7473 19.618 93.3153 19.72 92.9072 19.72ZM105.471 11.242C105.471 11.626 105.351 12.004 105.111 12.376C104.871 12.736 104.553 13.084 104.157 13.42C103.761 13.744 103.323 14.05 102.843 14.338C102.363 14.626 101.883 14.878 101.403 15.094C100.923 15.31 100.485 15.484 100.089 15.616C99.9934 16.084 99.9454 16.498 99.9454 16.858C99.9454 17.086 99.9994 17.248 100.107 17.344C100.215 17.44 100.383 17.488 100.611 17.488C101.115 17.488 101.649 17.398 102.213 17.218C102.777 17.038 103.353 16.804 103.941 16.516C104.529 16.228 105.093 15.922 105.633 15.598C106.173 15.274 106.665 14.968 107.109 14.68C107.565 14.392 107.943 14.158 108.243 13.978C108.543 13.798 108.741 13.708 108.837 13.708C108.981 13.708 109.089 13.756 109.161 13.852C109.245 13.936 109.287 14.038 109.287 14.158C109.287 14.254 109.137 14.44 108.837 14.716C108.549 14.992 108.159 15.316 107.667 15.688C107.175 16.048 106.623 16.42 106.011 16.804C105.399 17.188 104.763 17.548 104.103 17.884C103.455 18.22 102.825 18.49 102.213 18.694C101.613 18.898 101.073 19 100.593 19C99.9694 19 99.4834 18.766 99.1354 18.298C98.7874 17.83 98.6134 17.104 98.6134 16.12C98.6134 15.46 98.6974 14.794 98.8654 14.122C99.0454 13.45 99.2854 12.808 99.5854 12.196C99.8974 11.572 100.239 11.02 100.611 10.54C100.995 10.048 101.397 9.664 101.817 9.388C102.237 9.1 102.645 8.956 103.041 8.956C103.797 8.956 104.391 9.166 104.823 9.586C105.255 10.006 105.471 10.558 105.471 11.242ZM100.467 14.23C100.839 14.002 101.223 13.762 101.619 13.51C102.015 13.258 102.381 13 102.717 12.736C103.053 12.472 103.323 12.196 103.527 11.908C103.743 11.608 103.851 11.302 103.851 10.99C103.851 10.546 103.611 10.324 103.131 10.324C102.831 10.324 102.513 10.516 102.177 10.9C101.853 11.272 101.541 11.758 101.241 12.358C100.941 12.958 100.683 13.582 100.467 14.23ZM118.585 19.036C118.333 19.036 118.117 18.886 117.937 18.586C117.757 18.286 117.667 17.686 117.667 16.786C117.667 15.958 117.727 14.92 117.847 13.672C117.979 12.412 118.171 11.02 118.423 9.496C118.555 8.8 118.801 8.224 119.161 7.768C119.533 7.312 120.013 6.928 120.601 6.616C121.201 6.304 121.903 6.028 122.707 5.788C123.511 5.548 124.339 5.332 125.191 5.14C126.055 4.936 126.865 4.774 127.621 4.654C128.389 4.522 129.019 4.456 129.511 4.456C129.859 4.456 130.123 4.528 130.303 4.672C130.483 4.816 130.573 4.966 130.573 5.122C130.573 5.266 130.531 5.392 130.447 5.5C130.375 5.596 130.231 5.674 130.015 5.734C129.859 5.782 129.529 5.866 129.025 5.986C128.533 6.094 127.927 6.226 127.207 6.382C126.499 6.538 125.749 6.706 124.957 6.886C124.165 7.054 123.397 7.228 122.653 7.408C121.801 7.648 121.183 7.954 120.799 8.326C120.427 8.686 120.181 9.196 120.061 9.856C120.037 10.024 120.001 10.27 119.953 10.594C120.289 10.462 120.709 10.318 121.213 10.162C121.717 10.006 122.233 9.856 122.761 9.712C123.289 9.568 123.775 9.454 124.219 9.37C124.663 9.274 124.993 9.226 125.209 9.226C125.365 9.226 125.527 9.322 125.695 9.514C125.875 9.706 125.965 9.904 125.965 10.108C125.965 10.204 125.935 10.3 125.875 10.396C125.815 10.48 125.713 10.546 125.569 10.594C125.485 10.618 125.275 10.678 124.939 10.774C124.615 10.858 124.219 10.966 123.751 11.098C123.295 11.23 122.815 11.374 122.311 11.53C121.807 11.674 121.327 11.812 120.871 11.944C120.427 12.076 120.055 12.19 119.755 12.286C119.695 12.862 119.629 13.462 119.557 14.086C119.485 14.71 119.419 15.304 119.359 15.868C119.311 16.42 119.269 16.894 119.233 17.29C119.197 17.674 119.179 17.92 119.179 18.028C119.179 18.7 118.981 19.036 118.585 19.036ZM131.503 19.18C130.795 19.18 130.237 18.91 129.829 18.37C129.421 17.83 129.217 17.128 129.217 16.264C129.217 15.952 129.259 15.622 129.343 15.274C129.439 14.914 129.559 14.59 129.703 14.302C129.619 14.218 129.553 14.104 129.505 13.96C129.457 13.804 129.433 13.612 129.433 13.384C129.433 12.676 129.553 12.028 129.793 11.44C130.033 10.852 130.351 10.342 130.747 9.91C131.143 9.466 131.581 9.124 132.061 8.884C132.553 8.644 133.051 8.524 133.555 8.524C134.383 8.524 135.055 8.824 135.571 9.424C136.087 10.012 136.345 10.912 136.345 12.124C136.345 12.76 136.249 13.408 136.057 14.068C135.877 14.728 135.625 15.364 135.301 15.976C134.989 16.588 134.623 17.134 134.203 17.614C133.795 18.094 133.357 18.478 132.889 18.766C132.433 19.042 131.971 19.18 131.503 19.18ZM130.891 13.69C130.963 13.786 130.999 13.912 130.999 14.068C130.999 14.248 130.963 14.428 130.891 14.608C130.831 14.788 130.765 15.034 130.693 15.346C130.621 15.658 130.585 16.102 130.585 16.678C130.585 17.254 130.813 17.542 131.269 17.542C131.773 17.542 132.241 17.344 132.673 16.948C133.105 16.54 133.489 16.018 133.825 15.382C134.161 14.746 134.419 14.068 134.599 13.348C134.791 12.616 134.887 11.926 134.887 11.278C134.887 10.858 134.809 10.564 134.653 10.396C134.497 10.216 134.215 10.126 133.807 10.126C133.387 10.126 132.949 10.27 132.493 10.558C132.049 10.834 131.677 11.212 131.377 11.692C131.077 12.172 130.927 12.712 130.927 13.312C130.927 13.444 130.915 13.57 130.891 13.69ZM138.938 19.342C138.746 19.342 138.584 19.264 138.452 19.108C138.32 18.952 138.254 18.736 138.254 18.46C138.254 18.256 138.296 17.92 138.38 17.452C138.476 16.972 138.578 16.414 138.686 15.778C138.806 15.142 138.908 14.482 138.992 13.798C139.076 13.102 139.118 12.436 139.118 11.8C139.118 11.488 139.196 11.26 139.352 11.116C139.52 10.96 139.706 10.882 139.91 10.882C140.102 10.882 140.246 11.002 140.342 11.242C140.438 11.482 140.456 11.962 140.396 12.682C140.948 11.458 141.554 10.474 142.214 9.73C142.886 8.974 143.552 8.434 144.212 8.11C144.872 7.774 145.466 7.606 145.994 7.606C146.342 7.606 146.594 7.678 146.75 7.822C146.918 7.954 147.002 8.104 147.002 8.272C147.002 8.5 146.906 8.68 146.714 8.812C146.534 8.932 146.216 9.076 145.76 9.244C145.232 9.448 144.746 9.688 144.302 9.964C143.87 10.228 143.456 10.576 143.06 11.008C142.676 11.44 142.298 11.992 141.926 12.664C141.554 13.324 141.182 14.14 140.81 15.112C140.438 16.084 140.042 17.254 139.622 18.622C139.55 18.886 139.454 19.072 139.334 19.18C139.226 19.288 139.094 19.342 138.938 19.342ZM153.337 11.242C153.337 11.626 153.217 12.004 152.977 12.376C152.737 12.736 152.419 13.084 152.023 13.42C151.627 13.744 151.189 14.05 150.709 14.338C150.229 14.626 149.749 14.878 149.269 15.094C148.789 15.31 148.351 15.484 147.955 15.616C147.859 16.084 147.811 16.498 147.811 16.858C147.811 17.086 147.865 17.248 147.973 17.344C148.081 17.44 148.249 17.488 148.477 17.488C148.981 17.488 149.515 17.398 150.079 17.218C150.643 17.038 151.219 16.804 151.807 16.516C152.395 16.228 152.959 15.922 153.499 15.598C154.039 15.274 154.531 14.968 154.975 14.68C155.431 14.392 155.809 14.158 156.109 13.978C156.409 13.798 156.607 13.708 156.703 13.708C156.847 13.708 156.955 13.756 157.027 13.852C157.111 13.936 157.153 14.038 157.153 14.158C157.153 14.254 157.003 14.44 156.703 14.716C156.415 14.992 156.025 15.316 155.533 15.688C155.041 16.048 154.489 16.42 153.877 16.804C153.265 17.188 152.629 17.548 151.969 17.884C151.321 18.22 150.691 18.49 150.079 18.694C149.479 18.898 148.939 19 148.459 19C147.835 19 147.349 18.766 147.001 18.298C146.653 17.83 146.479 17.104 146.479 16.12C146.479 15.46 146.563 14.794 146.731 14.122C146.911 13.45 147.151 12.808 147.451 12.196C147.763 11.572 148.105 11.02 148.477 10.54C148.861 10.048 149.263 9.664 149.683 9.388C150.103 9.1 150.511 8.956 150.907 8.956C151.663 8.956 152.257 9.166 152.689 9.586C153.121 10.006 153.337 10.558 153.337 11.242ZM148.333 14.23C148.705 14.002 149.089 13.762 149.485 13.51C149.881 13.258 150.247 13 150.583 12.736C150.919 12.472 151.189 12.196 151.393 11.908C151.609 11.608 151.717 11.302 151.717 10.99C151.717 10.546 151.477 10.324 150.997 10.324C150.697 10.324 150.379 10.516 150.043 10.9C149.719 11.272 149.407 11.758 149.107 12.358C148.807 12.958 148.549 13.582 148.333 14.23ZM158.36 19.396C158.096 19.396 157.892 19.318 157.748 19.162C157.616 19.018 157.55 18.85 157.55 18.658C157.55 18.49 157.622 18.334 157.766 18.19C157.922 18.034 158.132 17.896 158.396 17.776C158.876 17.524 159.326 17.272 159.746 17.02C160.178 16.768 160.526 16.498 160.79 16.21C161.054 15.922 161.186 15.616 161.186 15.292C161.186 15.016 161.096 14.806 160.916 14.662C160.736 14.506 160.49 14.428 160.178 14.428C159.998 14.428 159.746 14.464 159.422 14.536C159.098 14.596 158.744 14.668 158.36 14.752C157.988 14.824 157.622 14.896 157.262 14.968C156.902 15.028 156.596 15.058 156.344 15.058C155.888 15.058 155.546 14.95 155.318 14.734C155.09 14.506 154.976 14.2 154.976 13.816C154.976 13.624 155.09 13.336 155.318 12.952C155.546 12.568 155.846 12.142 156.218 11.674C156.602 11.194 157.022 10.714 157.478 10.234C157.934 9.754 158.396 9.31 158.864 8.902C159.344 8.494 159.788 8.164 160.196 7.912C160.616 7.66 160.964 7.534 161.24 7.534C161.516 7.534 161.726 7.624 161.87 7.804C162.014 7.984 162.086 8.212 162.086 8.488C162.086 8.704 162.05 8.89 161.978 9.046C161.906 9.19 161.756 9.304 161.528 9.388C161.312 9.472 160.976 9.52 160.52 9.532C160.052 9.904 159.554 10.33 159.026 10.81C158.51 11.278 158.036 11.764 157.604 12.268C157.184 12.76 156.878 13.234 156.686 13.69C157.082 13.558 157.562 13.444 158.126 13.348C158.702 13.24 159.284 13.186 159.872 13.186C160.796 13.186 161.48 13.396 161.924 13.816C162.38 14.224 162.608 14.764 162.608 15.436C162.608 15.868 162.47 16.318 162.194 16.786C161.93 17.242 161.582 17.668 161.15 18.064C160.718 18.46 160.256 18.778 159.764 19.018C159.272 19.27 158.804 19.396 158.36 19.396ZM163.315 13.24C162.991 13.216 162.841 13.006 162.865 12.61C162.877 12.514 162.943 12.4 163.063 12.268C163.183 12.124 163.321 12.046 163.477 12.034C163.849 11.998 164.305 11.944 164.845 11.872C165.397 11.788 166.003 11.692 166.663 11.584C166.783 10.996 166.927 10.378 167.095 9.73C167.263 9.082 167.449 8.452 167.653 7.84C167.857 7.216 168.073 6.652 168.301 6.148C168.529 5.644 168.769 5.248 169.021 4.96C169.153 4.828 169.273 4.738 169.381 4.69C169.489 4.63 169.585 4.6 169.669 4.6C169.837 4.6 169.969 4.672 170.065 4.816C170.173 4.96 170.227 5.122 170.227 5.302C170.227 5.398 170.209 5.494 170.173 5.59C169.933 6.262 169.675 7.09 169.399 8.074C169.123 9.058 168.829 10.132 168.517 11.296C169.621 11.116 170.725 10.924 171.829 10.72C172.933 10.516 173.881 10.33 174.673 10.162C174.901 10.066 175.075 10.084 175.195 10.216C175.327 10.348 175.393 10.48 175.393 10.612C175.393 10.78 175.345 10.906 175.249 10.99C175.165 11.074 175.075 11.146 174.979 11.206L174.961 11.224C174.721 11.32 174.361 11.434 173.881 11.566C173.401 11.686 172.849 11.818 172.225 11.962C171.601 12.094 170.935 12.226 170.227 12.358C169.531 12.49 168.841 12.61 168.157 12.718C167.881 13.774 167.599 14.86 167.311 15.976C167.035 17.08 166.759 18.166 166.483 19.234C166.363 19.666 166.225 19.936 166.069 20.044C165.925 20.164 165.769 20.224 165.601 20.224C165.409 20.224 165.241 20.152 165.097 20.008C164.965 19.864 164.947 19.57 165.043 19.126L166.357 12.988C165.637 13.096 165.001 13.174 164.449 13.222C163.909 13.27 163.531 13.276 163.315 13.24Z" fill="black"/>
<path d="M0.964 42.252C0.836 42.252 0.732 42.208 0.652 42.12C0.572 42.032 0.532 41.876 0.532 41.652C0.532 41.484 0.584 41.212 0.688 40.836C0.8 40.452 0.948 40.004 1.132 39.492C1.324 38.98 1.536 38.44 1.768 37.872C2.008 37.296 2.256 36.724 2.512 36.156C2.768 35.588 3.02 35.064 3.268 34.584C3.516 34.096 3.744 33.684 3.952 33.348C4.16 33.012 4.336 32.792 4.48 32.688C4.648 32.568 4.804 32.508 4.948 32.508C5.028 32.508 5.108 32.516 5.188 32.532C5.268 32.548 5.336 32.576 5.392 32.616C5.536 32.704 5.66 32.9 5.764 33.204C5.876 33.5 5.972 33.864 6.052 34.296C6.132 34.72 6.196 35.176 6.244 35.664C6.3 36.144 6.348 36.62 6.388 37.092C6.628 37.06 6.828 37.036 6.988 37.02C7.148 37.004 7.264 36.996 7.336 36.996C7.608 36.996 7.78 37.032 7.852 37.104C7.924 37.176 7.964 37.26 7.972 37.356C7.988 37.5 7.948 37.628 7.852 37.74C7.756 37.852 7.62 37.936 7.444 37.992C7.388 38.008 7.268 38.036 7.084 38.076C6.908 38.108 6.696 38.148 6.448 38.196C6.456 38.436 6.46 38.66 6.46 38.868C6.468 39.068 6.472 39.24 6.472 39.384C6.472 40.112 6.428 40.66 6.34 41.028C6.252 41.388 6.144 41.632 6.016 41.76C5.888 41.888 5.764 41.952 5.644 41.952C5.5 41.952 5.4 41.912 5.344 41.832C5.288 41.744 5.26 41.62 5.26 41.46V40.608C5.26 40.312 5.256 39.976 5.248 39.6C5.248 39.216 5.244 38.812 5.236 38.388C4.764 38.468 4.284 38.544 3.796 38.616C3.316 38.688 2.9 38.752 2.548 38.808C2.372 39.264 2.22 39.676 2.092 40.044C1.964 40.404 1.876 40.68 1.828 40.872C1.708 41.272 1.6 41.572 1.504 41.772C1.408 41.964 1.316 42.092 1.228 42.156C1.148 42.22 1.06 42.252 0.964 42.252ZM2.956 37.74C3.372 37.644 3.768 37.556 4.144 37.476C4.528 37.396 4.88 37.328 5.2 37.272C5.176 36.552 5.132 35.864 5.068 35.208C5.012 34.544 4.928 34.02 4.816 33.636C4.664 33.9 4.484 34.252 4.276 34.692C4.068 35.132 3.848 35.62 3.616 36.156C3.392 36.684 3.172 37.212 2.956 37.74ZM14.4204 35.964C14.6364 35.444 14.8404 34.908 15.0324 34.356C15.2324 33.804 15.4124 33.24 15.5724 32.664C15.6204 32.504 15.6924 32.376 15.7884 32.28C15.8924 32.176 16.0124 32.124 16.1484 32.124C16.2444 32.124 16.3244 32.16 16.3884 32.232C16.4604 32.304 16.4964 32.4 16.4964 32.52C16.4964 32.672 16.4364 32.936 16.3164 33.312C16.2044 33.688 16.0604 34.164 15.8844 34.74C15.7164 35.316 15.5444 35.98 15.3684 36.732C15.2004 37.476 15.0564 38.3 14.9364 39.204C14.8244 40.108 14.7684 41.072 14.7684 42.096C14.7684 42.32 14.7204 42.504 14.6244 42.648C14.5284 42.8 14.4124 42.876 14.2764 42.876C14.1964 42.876 14.1204 42.856 14.0484 42.816C13.9764 42.776 13.9124 42.68 13.8564 42.528C13.8084 42.384 13.7684 42.156 13.7364 41.844C13.7044 41.524 13.6884 41.092 13.6884 40.548C13.6884 40.132 13.7124 39.68 13.7604 39.192C13.3924 39.856 12.9924 40.436 12.5604 40.932C12.1364 41.42 11.7244 41.796 11.3244 42.06C10.9324 42.324 10.5964 42.456 10.3164 42.456C9.97241 42.456 9.69241 42.34 9.47641 42.108C9.26841 41.884 9.16441 41.548 9.16441 41.1C9.16441 40.708 9.25641 40.304 9.44041 39.888C9.62441 39.472 9.86841 39.064 10.1724 38.664C10.4764 38.256 10.8124 37.872 11.1804 37.512C11.5484 37.152 11.9164 36.836 12.2844 36.564C12.6604 36.284 13.0084 36.068 13.3284 35.916C13.6484 35.756 13.9084 35.676 14.1084 35.676C14.1884 35.676 14.2604 35.704 14.3244 35.76C14.3884 35.816 14.4204 35.884 14.4204 35.964ZM14.2644 36.336C14.2084 36.392 14.1404 36.448 14.0604 36.504C13.9804 36.56 13.8924 36.62 13.7964 36.684C13.4444 36.932 13.0564 37.22 12.6324 37.548C12.2164 37.868 11.8164 38.22 11.4324 38.604C11.0564 38.98 10.7484 39.376 10.5084 39.792C10.2684 40.208 10.1484 40.636 10.1484 41.076C10.1484 41.268 10.2444 41.364 10.4364 41.364C10.7004 41.364 10.9884 41.24 11.3004 40.992C11.6204 40.736 11.9484 40.384 12.2844 39.936C12.6204 39.48 12.9564 38.948 13.2924 38.34C13.6284 37.724 13.9524 37.056 14.2644 36.336ZM21.9087 35.964C22.1247 35.444 22.3287 34.908 22.5207 34.356C22.7207 33.804 22.9007 33.24 23.0607 32.664C23.1087 32.504 23.1807 32.376 23.2767 32.28C23.3807 32.176 23.5007 32.124 23.6367 32.124C23.7327 32.124 23.8127 32.16 23.8767 32.232C23.9487 32.304 23.9847 32.4 23.9847 32.52C23.9847 32.672 23.9247 32.936 23.8047 33.312C23.6927 33.688 23.5487 34.164 23.3727 34.74C23.2047 35.316 23.0327 35.98 22.8567 36.732C22.6887 37.476 22.5447 38.3 22.4247 39.204C22.3127 40.108 22.2567 41.072 22.2567 42.096C22.2567 42.32 22.2087 42.504 22.1127 42.648C22.0167 42.8 21.9007 42.876 21.7647 42.876C21.6847 42.876 21.6087 42.856 21.5367 42.816C21.4647 42.776 21.4007 42.68 21.3447 42.528C21.2967 42.384 21.2567 42.156 21.2247 41.844C21.1927 41.524 21.1767 41.092 21.1767 40.548C21.1767 40.132 21.2007 39.68 21.2487 39.192C20.8807 39.856 20.4807 40.436 20.0487 40.932C19.6247 41.42 19.2127 41.796 18.8127 42.06C18.4207 42.324 18.0847 42.456 17.8047 42.456C17.4607 42.456 17.1807 42.34 16.9647 42.108C16.7567 41.884 16.6527 41.548 16.6527 41.1C16.6527 40.708 16.7447 40.304 16.9287 39.888C17.1127 39.472 17.3567 39.064 17.6607 38.664C17.9647 38.256 18.3007 37.872 18.6687 37.512C19.0367 37.152 19.4047 36.836 19.7727 36.564C20.1487 36.284 20.4967 36.068 20.8167 35.916C21.1367 35.756 21.3967 35.676 21.5967 35.676C21.6767 35.676 21.7487 35.704 21.8127 35.76C21.8767 35.816 21.9087 35.884 21.9087 35.964ZM21.7527 36.336C21.6967 36.392 21.6287 36.448 21.5487 36.504C21.4687 36.56 21.3807 36.62 21.2847 36.684C20.9327 36.932 20.5447 37.22 20.1207 37.548C19.7047 37.868 19.3047 38.22 18.9207 38.604C18.5447 38.98 18.2367 39.376 17.9967 39.792C17.7567 40.208 17.6367 40.636 17.6367 41.076C17.6367 41.268 17.7327 41.364 17.9247 41.364C18.1887 41.364 18.4767 41.24 18.7887 40.992C19.1087 40.736 19.4367 40.384 19.7727 39.936C20.1087 39.48 20.4447 38.948 20.7807 38.34C21.1167 37.724 21.4407 37.056 21.7527 36.336ZM32.3939 42.024C32.2259 42.024 32.0819 41.924 31.9619 41.724C31.8419 41.524 31.7819 41.124 31.7819 40.524C31.7819 39.972 31.8219 39.28 31.9019 38.448C31.9899 37.608 32.1179 36.68 32.2859 35.664C32.3739 35.2 32.5379 34.816 32.7779 34.512C33.0259 34.208 33.3459 33.952 33.7379 33.744C34.1379 33.536 34.6059 33.352 35.1419 33.192C35.6779 33.032 36.2299 32.888 36.7979 32.76C37.3739 32.624 37.9139 32.516 38.4179 32.436C38.9299 32.348 39.3499 32.304 39.6779 32.304C39.9099 32.304 40.0859 32.352 40.2059 32.448C40.3259 32.544 40.3859 32.644 40.3859 32.748C40.3859 32.844 40.3579 32.928 40.3019 33C40.2539 33.064 40.1579 33.116 40.0139 33.156C39.9099 33.188 39.6899 33.244 39.3539 33.324C39.0259 33.396 38.6219 33.484 38.1419 33.588C37.6699 33.692 37.1699 33.804 36.6419 33.924C36.1139 34.036 35.6019 34.152 35.1059 34.272C34.5379 34.432 34.1259 34.636 33.8699 34.884C33.6219 35.124 33.4579 35.464 33.3779 35.904C33.3619 36.016 33.3379 36.18 33.3059 36.396C33.5299 36.308 33.8099 36.212 34.1459 36.108C34.4819 36.004 34.8259 35.904 35.1779 35.808C35.5299 35.712 35.8539 35.636 36.1499 35.58C36.4459 35.516 36.6659 35.484 36.8099 35.484C36.9139 35.484 37.0219 35.548 37.1339 35.676C37.2539 35.804 37.3139 35.936 37.3139 36.072C37.3139 36.136 37.2939 36.2 37.2539 36.264C37.2139 36.32 37.1459 36.364 37.0499 36.396C36.9939 36.412 36.8539 36.452 36.6299 36.516C36.4139 36.572 36.1499 36.644 35.8379 36.732C35.5339 36.82 35.2139 36.916 34.8779 37.02C34.5419 37.116 34.2219 37.208 33.9179 37.296C33.6219 37.384 33.3739 37.46 33.1739 37.524C33.1339 37.908 33.0899 38.308 33.0419 38.724C32.9939 39.14 32.9499 39.536 32.9099 39.912C32.8779 40.28 32.8499 40.596 32.8259 40.86C32.8019 41.116 32.7899 41.28 32.7899 41.352C32.7899 41.8 32.6579 42.024 32.3939 42.024ZM41.9824 42.48C41.3664 42.48 40.8824 42.28 40.5304 41.88C40.1864 41.472 40.0144 40.904 40.0144 40.176C40.0144 39.728 40.0744 39.204 40.1944 38.604C40.3224 37.996 40.4824 37.356 40.6744 36.684C40.8744 36.004 41.0904 35.332 41.3224 34.668C41.5544 34.004 41.7784 33.388 41.9944 32.82C42.2184 32.244 42.4144 31.764 42.5824 31.38C42.6784 31.164 42.8144 31.056 42.9904 31.056C43.2304 31.056 43.3504 31.204 43.3504 31.5C43.3504 31.596 43.3064 31.792 43.2184 32.088C43.1304 32.384 43.0144 32.752 42.8704 33.192C42.7264 33.624 42.5704 34.104 42.4024 34.632C42.2344 35.16 42.0624 35.704 41.8864 36.264C41.7184 36.816 41.5624 37.364 41.4184 37.908C41.2744 38.444 41.1584 38.948 41.0704 39.42C40.9824 39.892 40.9384 40.296 40.9384 40.632C40.9384 40.848 40.9944 41.02 41.1064 41.148C41.2264 41.268 41.3864 41.328 41.5864 41.328C41.9544 41.328 42.3224 41.256 42.6904 41.112C43.0664 40.96 43.4264 40.776 43.7704 40.56C44.1144 40.336 44.4264 40.116 44.7064 39.9C44.9944 39.676 45.2384 39.492 45.4384 39.348C45.6384 39.196 45.7784 39.12 45.8584 39.12C46.0344 39.12 46.1224 39.216 46.1224 39.408C46.1224 39.472 46.0584 39.592 45.9304 39.768C45.8024 39.936 45.6304 40.136 45.4144 40.368C45.1984 40.6 44.9464 40.84 44.6584 41.088C44.3784 41.328 44.0824 41.556 43.7704 41.772C43.4664 41.98 43.1584 42.148 42.8464 42.276C42.5424 42.412 42.2544 42.48 41.9824 42.48ZM47.0409 42.12C46.5689 42.12 46.1969 41.94 45.9249 41.58C45.6529 41.22 45.5169 40.752 45.5169 40.176C45.5169 39.968 45.5449 39.748 45.6009 39.516C45.6649 39.276 45.7449 39.06 45.8409 38.868C45.7849 38.812 45.7409 38.736 45.7089 38.64C45.6769 38.536 45.6609 38.408 45.6609 38.256C45.6609 37.784 45.7409 37.352 45.9009 36.96C46.0609 36.568 46.2729 36.228 46.5369 35.94C46.8009 35.644 47.0929 35.416 47.4129 35.256C47.7409 35.096 48.0729 35.016 48.4089 35.016C48.9609 35.016 49.4089 35.216 49.7529 35.616C50.0969 36.008 50.2689 36.608 50.2689 37.416C50.2689 37.84 50.2049 38.272 50.0769 38.712C49.9569 39.152 49.7889 39.576 49.5729 39.984C49.3649 40.392 49.1209 40.756 48.8409 41.076C48.5689 41.396 48.2769 41.652 47.9649 41.844C47.6609 42.028 47.3529 42.12 47.0409 42.12ZM46.6329 38.46C46.6809 38.524 46.7049 38.608 46.7049 38.712C46.7049 38.832 46.6809 38.952 46.6329 39.072C46.5929 39.192 46.5489 39.356 46.5009 39.564C46.4529 39.772 46.4289 40.068 46.4289 40.452C46.4289 40.836 46.5809 41.028 46.8849 41.028C47.2209 41.028 47.5329 40.896 47.8209 40.632C48.1089 40.36 48.3649 40.012 48.5889 39.588C48.8129 39.164 48.9849 38.712 49.1049 38.232C49.2329 37.744 49.2969 37.284 49.2969 36.852C49.2969 36.572 49.2449 36.376 49.1409 36.264C49.0369 36.144 48.8489 36.084 48.5769 36.084C48.2969 36.084 48.0049 36.18 47.7009 36.372C47.4049 36.556 47.1569 36.808 46.9569 37.128C46.7569 37.448 46.6569 37.808 46.6569 38.208C46.6569 38.296 46.6489 38.38 46.6329 38.46ZM51.9975 42.228C51.8695 42.228 51.7615 42.176 51.6735 42.072C51.5855 41.968 51.5415 41.824 51.5415 41.64C51.5415 41.504 51.5695 41.28 51.6255 40.968C51.6895 40.648 51.7575 40.276 51.8295 39.852C51.9095 39.428 51.9775 38.988 52.0335 38.532C52.0895 38.068 52.1175 37.624 52.1175 37.2C52.1175 36.992 52.1695 36.84 52.2735 36.744C52.3855 36.64 52.5095 36.588 52.6455 36.588C52.7735 36.588 52.8695 36.668 52.9335 36.828C52.9975 36.988 53.0095 37.308 52.9695 37.788C53.3375 36.972 53.7415 36.316 54.1815 35.82C54.6295 35.316 55.0735 34.956 55.5135 34.74C55.9535 34.516 56.3495 34.404 56.7015 34.404C56.9335 34.404 57.1015 34.452 57.2055 34.548C57.3175 34.636 57.3735 34.736 57.3735 34.848C57.3735 35 57.3095 35.12 57.1815 35.208C57.0615 35.288 56.8495 35.384 56.5455 35.496C56.1935 35.632 55.8695 35.792 55.5735 35.976C55.2855 36.152 55.0095 36.384 54.7455 36.672C54.4895 36.96 54.2375 37.328 53.9895 37.776C53.7415 38.216 53.4935 38.76 53.2455 39.408C52.9975 40.056 52.7335 40.836 52.4535 41.748C52.4055 41.924 52.3415 42.048 52.2615 42.12C52.1895 42.192 52.1015 42.228 51.9975 42.228ZM57.0667 42.312C56.7627 42.312 56.5107 42.172 56.3107 41.892C56.1187 41.604 56.0227 41.232 56.0227 40.776C56.0227 40.352 56.1267 39.932 56.3347 39.516C56.5507 39.1 56.8347 38.7 57.1867 38.316C57.5387 37.932 57.9227 37.58 58.3387 37.26C58.7547 36.932 59.1707 36.648 59.5867 36.408C60.0107 36.168 60.3987 35.98 60.7507 35.844C61.1027 35.708 61.3827 35.64 61.5907 35.64C61.7027 35.64 61.7947 35.664 61.8667 35.712C61.9387 35.752 61.9747 35.828 61.9747 35.94C61.9747 36.012 61.9467 36.08 61.8907 36.144C61.8987 36.144 61.9067 36.144 61.9147 36.144C62.0907 36.144 62.1787 36.248 62.1787 36.456C62.1787 36.528 62.1507 36.676 62.0947 36.9C62.0387 37.116 61.9747 37.388 61.9027 37.716C61.8307 38.044 61.7667 38.408 61.7107 38.808C61.6547 39.2 61.6267 39.6 61.6267 40.008C61.6267 40.352 61.7587 40.524 62.0227 40.524C62.3187 40.524 62.6187 40.456 62.9227 40.32C63.2267 40.184 63.5227 40.02 63.8107 39.828C64.0987 39.628 64.3627 39.432 64.6027 39.24C64.8427 39.04 65.0467 38.872 65.2147 38.736C65.3827 38.6 65.5027 38.532 65.5747 38.532C65.6387 38.532 65.6947 38.552 65.7427 38.592C65.7907 38.632 65.8147 38.696 65.8147 38.784C65.8147 38.864 65.7347 39.008 65.5747 39.216C65.4147 39.424 65.2027 39.66 64.9387 39.924C64.6747 40.188 64.3787 40.444 64.0507 40.692C63.7227 40.94 63.3867 41.144 63.0427 41.304C62.6987 41.464 62.3707 41.544 62.0587 41.544C61.8187 41.544 61.5987 41.472 61.3987 41.328C61.2067 41.176 61.0507 40.92 60.9307 40.56C60.8187 40.2 60.7627 39.704 60.7627 39.072V38.772C60.3707 39.42 59.9587 40.012 59.5267 40.548C59.1027 41.084 58.6787 41.512 58.2547 41.832C57.8387 42.152 57.4427 42.312 57.0667 42.312ZM61.3627 36.504C61.3227 36.52 61.2667 36.544 61.1947 36.576C60.8267 36.744 60.4427 36.952 60.0427 37.2C59.6507 37.448 59.2667 37.724 58.8907 38.028C58.5227 38.332 58.1907 38.648 57.8947 38.976C57.5987 39.304 57.3627 39.636 57.1867 39.972C57.0107 40.308 56.9227 40.636 56.9227 40.956C56.9227 41.06 56.9427 41.14 56.9827 41.196C57.0307 41.252 57.1107 41.28 57.2227 41.28C57.3827 41.28 57.5907 41.18 57.8467 40.98C58.1027 40.772 58.3827 40.5 58.6867 40.164C58.9987 39.828 59.3107 39.456 59.6227 39.048C59.9347 38.64 60.2307 38.228 60.5107 37.812C60.7987 37.396 61.0467 37.012 61.2547 36.66C61.2867 36.604 61.3227 36.552 61.3627 36.504ZM73.2861 43.308C73.1581 43.308 73.0421 43.24 72.9381 43.104C72.8421 42.968 72.7941 42.796 72.7941 42.588C72.7941 42.468 72.8101 42.264 72.8421 41.976C72.7941 41.976 72.7461 41.976 72.6981 41.976C72.2421 41.976 71.8101 41.88 71.4021 41.688C70.9941 41.488 70.6621 41.224 70.4061 40.896C70.1501 40.568 70.0221 40.212 70.0221 39.828C70.0221 39.532 70.1421 39.26 70.3821 39.012C70.6301 38.756 70.9501 38.528 71.3421 38.328C71.7421 38.12 72.1741 37.94 72.6381 37.788C72.3181 37.628 72.0461 37.436 71.8221 37.212C71.5981 36.98 71.4861 36.72 71.4861 36.432C71.4861 36.12 71.6181 35.8 71.8821 35.472C72.1461 35.144 72.4901 34.832 72.9141 34.536C73.3381 34.232 73.7901 33.964 74.2701 33.732C74.3661 33.268 74.4621 32.824 74.5581 32.4C74.6541 31.968 74.7461 31.572 74.8341 31.212C74.8741 31.06 74.9341 30.936 75.0141 30.84C75.1021 30.736 75.1981 30.684 75.3021 30.684C75.4141 30.684 75.5021 30.732 75.5661 30.828C75.6381 30.924 75.6741 31.112 75.6741 31.392C75.6741 31.448 75.6461 31.648 75.5901 31.992C75.5341 32.328 75.4581 32.76 75.3621 33.288C75.6421 33.192 75.9141 33.12 76.1781 33.072C76.4421 33.016 76.6781 32.988 76.8861 32.988C77.1821 32.988 77.4341 33.052 77.6421 33.18C77.8581 33.308 77.9661 33.464 77.9661 33.648C77.9661 33.76 77.9181 33.852 77.8221 33.924C77.7341 33.988 77.5861 34.04 77.3781 34.08C76.9941 34.144 76.6101 34.22 76.2261 34.308C75.8421 34.396 75.4741 34.492 75.1221 34.596C75.0421 35.012 74.9621 35.448 74.8821 35.904C74.8021 36.36 74.7181 36.828 74.6301 37.308C75.1741 37.212 75.6261 37.164 75.9861 37.164C76.2661 37.164 76.4701 37.184 76.5981 37.224C76.7341 37.264 76.8221 37.316 76.8621 37.38C76.9021 37.444 76.9221 37.512 76.9221 37.584C76.9221 37.776 76.7301 37.948 76.3461 38.1C75.9701 38.244 75.3821 38.316 74.5821 38.316C74.5421 38.316 74.4941 38.316 74.4381 38.316C74.3661 38.724 74.2941 39.132 74.2221 39.54C74.1501 39.948 74.0781 40.348 74.0061 40.74C74.5981 40.652 75.1341 40.532 75.6141 40.38C76.1021 40.228 76.5301 40.072 76.8981 39.912C77.2661 39.752 77.5661 39.62 77.7981 39.516C78.0301 39.404 78.1861 39.348 78.2661 39.348C78.3461 39.348 78.4021 39.376 78.4341 39.432C78.4741 39.488 78.4941 39.536 78.4941 39.576C78.4941 39.696 78.3901 39.868 78.1821 40.092C77.9741 40.316 77.6701 40.556 77.2701 40.812C76.8701 41.06 76.3781 41.288 75.7941 41.496C75.2181 41.696 74.5541 41.836 73.8021 41.916C73.7621 42.188 73.7221 42.44 73.6821 42.672C73.6501 42.896 73.5941 43.056 73.5141 43.152C73.4341 43.256 73.3581 43.308 73.2861 43.308ZM72.9981 40.836C73.1101 40.108 73.2461 39.268 73.4061 38.316C73.0301 38.46 72.6541 38.616 72.2781 38.784C71.9101 38.944 71.6021 39.136 71.3541 39.36C71.1141 39.576 70.9941 39.84 70.9941 40.152C70.9941 40.352 71.1261 40.52 71.3901 40.656C71.6541 40.784 72.0381 40.848 72.5421 40.848C72.6941 40.848 72.8461 40.844 72.9981 40.836ZM73.5501 37.536C73.6221 37.12 73.6981 36.7 73.7781 36.276C73.8581 35.844 73.9381 35.416 74.0181 34.992C73.5541 35.184 73.1781 35.4 72.8901 35.64C72.6021 35.872 72.4581 36.116 72.4581 36.372C72.4581 36.58 72.5581 36.788 72.7581 36.996C72.9581 37.204 73.2181 37.384 73.5381 37.536C73.5381 37.536 73.5421 37.536 73.5501 37.536ZM87.2376 42.024C87.0696 42.024 86.9256 41.924 86.8056 41.724C86.6856 41.524 86.6256 41.124 86.6256 40.524C86.6256 39.972 86.6656 39.28 86.7456 38.448C86.8336 37.608 86.9616 36.68 87.1296 35.664C87.2176 35.2 87.3816 34.816 87.6216 34.512C87.8696 34.208 88.1896 33.952 88.5816 33.744C88.9816 33.536 89.4496 33.352 89.9856 33.192C90.5216 33.032 91.0736 32.888 91.6416 32.76C92.2176 32.624 92.7576 32.516 93.2616 32.436C93.7736 32.348 94.1936 32.304 94.5216 32.304C94.7536 32.304 94.9296 32.352 95.0496 32.448C95.1696 32.544 95.2296 32.644 95.2296 32.748C95.2296 32.844 95.2016 32.928 95.1456 33C95.0976 33.064 95.0016 33.116 94.8576 33.156C94.7536 33.188 94.5336 33.244 94.1976 33.324C93.8696 33.396 93.4656 33.484 92.9856 33.588C92.5136 33.692 92.0136 33.804 91.4856 33.924C90.9576 34.036 90.4456 34.152 89.9496 34.272C89.3816 34.432 88.9696 34.636 88.7136 34.884C88.4656 35.124 88.3016 35.464 88.2216 35.904C88.2056 36.016 88.1816 36.18 88.1496 36.396C88.3736 36.308 88.6536 36.212 88.9896 36.108C89.3256 36.004 89.6696 35.904 90.0216 35.808C90.3736 35.712 90.6976 35.636 90.9936 35.58C91.2896 35.516 91.5096 35.484 91.6536 35.484C91.7576 35.484 91.8656 35.548 91.9776 35.676C92.0976 35.804 92.1576 35.936 92.1576 36.072C92.1576 36.136 92.1376 36.2 92.0976 36.264C92.0576 36.32 91.9896 36.364 91.8936 36.396C91.8376 36.412 91.6976 36.452 91.4736 36.516C91.2576 36.572 90.9936 36.644 90.6816 36.732C90.3776 36.82 90.0576 36.916 89.7216 37.02C89.3856 37.116 89.0656 37.208 88.7616 37.296C88.4656 37.384 88.2176 37.46 88.0176 37.524C87.9776 37.908 87.9336 38.308 87.8856 38.724C87.8376 39.14 87.7936 39.536 87.7536 39.912C87.7216 40.28 87.6936 40.596 87.6696 40.86C87.6456 41.116 87.6336 41.28 87.6336 41.352C87.6336 41.8 87.5016 42.024 87.2376 42.024ZM94.098 42.312C93.794 42.312 93.542 42.172 93.342 41.892C93.15 41.604 93.054 41.232 93.054 40.776C93.054 40.352 93.158 39.932 93.366 39.516C93.582 39.1 93.866 38.7 94.218 38.316C94.57 37.932 94.954 37.58 95.37 37.26C95.786 36.932 96.202 36.648 96.618 36.408C97.042 36.168 97.43 35.98 97.782 35.844C98.134 35.708 98.414 35.64 98.622 35.64C98.734 35.64 98.826 35.664 98.898 35.712C98.97 35.752 99.006 35.828 99.006 35.94C99.006 36.012 98.978 36.08 98.922 36.144C98.93 36.144 98.938 36.144 98.946 36.144C99.122 36.144 99.21 36.248 99.21 36.456C99.21 36.528 99.182 36.676 99.126 36.9C99.07 37.116 99.006 37.388 98.934 37.716C98.862 38.044 98.798 38.408 98.742 38.808C98.686 39.2 98.658 39.6 98.658 40.008C98.658 40.352 98.79 40.524 99.054 40.524C99.35 40.524 99.65 40.456 99.954 40.32C100.258 40.184 100.554 40.02 100.842 39.828C101.13 39.628 101.394 39.432 101.634 39.24C101.874 39.04 102.078 38.872 102.246 38.736C102.414 38.6 102.534 38.532 102.606 38.532C102.67 38.532 102.726 38.552 102.774 38.592C102.822 38.632 102.846 38.696 102.846 38.784C102.846 38.864 102.766 39.008 102.606 39.216C102.446 39.424 102.234 39.66 101.97 39.924C101.706 40.188 101.41 40.444 101.082 40.692C100.754 40.94 100.418 41.144 100.074 41.304C99.73 41.464 99.402 41.544 99.09 41.544C98.85 41.544 98.63 41.472 98.43 41.328C98.238 41.176 98.082 40.92 97.962 40.56C97.85 40.2 97.794 39.704 97.794 39.072V38.772C97.402 39.42 96.99 40.012 96.558 40.548C96.134 41.084 95.71 41.512 95.286 41.832C94.87 42.152 94.474 42.312 94.098 42.312ZM98.394 36.504C98.354 36.52 98.298 36.544 98.226 36.576C97.858 36.744 97.474 36.952 97.074 37.2C96.682 37.448 96.298 37.724 95.922 38.028C95.554 38.332 95.222 38.648 94.926 38.976C94.63 39.304 94.394 39.636 94.218 39.972C94.042 40.308 93.954 40.636 93.954 40.956C93.954 41.06 93.974 41.14 94.014 41.196C94.062 41.252 94.142 41.28 94.254 41.28C94.414 41.28 94.622 41.18 94.878 40.98C95.134 40.772 95.414 40.5 95.718 40.164C96.03 39.828 96.342 39.456 96.654 39.048C96.966 38.64 97.262 38.228 97.542 37.812C97.83 37.396 98.078 37.012 98.286 36.66C98.318 36.604 98.354 36.552 98.394 36.504ZM105.702 42.288C105.566 42.288 105.45 42.228 105.354 42.108C105.258 41.988 105.21 41.812 105.21 41.58C105.21 41.308 105.25 40.92 105.33 40.416C105.418 39.912 105.546 39.244 105.714 38.412C105.498 38.924 105.258 39.408 104.994 39.864C104.738 40.32 104.466 40.692 104.178 40.98C103.89 41.268 103.594 41.412 103.29 41.412C102.994 41.412 102.73 41.296 102.498 41.064C102.274 40.832 102.162 40.424 102.162 39.84C102.162 39.512 102.19 39.144 102.246 38.736C102.302 38.32 102.374 37.908 102.462 37.5C102.55 37.092 102.638 36.728 102.726 36.408C102.814 36.08 102.894 35.84 102.966 35.688C103.022 35.56 103.078 35.476 103.134 35.436C103.19 35.388 103.266 35.364 103.362 35.364C103.474 35.364 103.594 35.412 103.722 35.508C103.85 35.604 103.914 35.764 103.914 35.988C103.914 36.044 103.886 36.176 103.83 36.384C103.782 36.584 103.718 36.832 103.638 37.128C103.566 37.416 103.49 37.728 103.41 38.064C103.33 38.4 103.262 38.736 103.206 39.072C103.158 39.408 103.134 39.716 103.134 39.996C103.134 40.148 103.15 40.272 103.182 40.368C103.214 40.464 103.294 40.512 103.422 40.512C103.534 40.512 103.674 40.4 103.842 40.176C104.018 39.952 104.206 39.656 104.406 39.288C104.614 38.912 104.826 38.496 105.042 38.04C105.266 37.584 105.482 37.116 105.69 36.636C105.906 36.156 106.102 35.7 106.278 35.268C106.342 35.124 106.41 35.036 106.482 35.004C106.554 34.964 106.634 34.944 106.722 34.944C106.866 34.944 106.994 35.004 107.106 35.124C107.226 35.236 107.286 35.384 107.286 35.568C107.286 35.688 107.262 35.896 107.214 36.192C107.174 36.488 107.114 36.836 107.034 37.236C106.962 37.628 106.878 38.044 106.782 38.484C106.694 38.924 106.606 39.36 106.518 39.792C106.43 40.216 106.346 40.604 106.266 40.956C106.194 41.308 106.134 41.592 106.086 41.808C106.046 42.008 105.99 42.136 105.918 42.192C105.854 42.256 105.782 42.288 105.702 42.288ZM109.757 41.724C109.525 41.724 109.317 41.592 109.133 41.328C108.949 41.064 108.857 40.724 108.857 40.308C108.857 39.852 108.917 39.364 109.037 38.844C109.165 38.324 109.321 37.796 109.505 37.26C109.689 36.716 109.869 36.192 110.045 35.688C110.085 35.584 110.141 35.508 110.213 35.46C110.293 35.404 110.413 35.376 110.573 35.376C110.861 35.376 111.005 35.516 111.005 35.796C111.005 35.86 110.973 36.004 110.909 36.228C110.845 36.452 110.761 36.728 110.657 37.056C110.561 37.384 110.461 37.74 110.357 38.124C110.253 38.5 110.161 38.88 110.081 39.264C110.001 39.648 109.945 40.004 109.913 40.332C110.041 40.196 110.185 39.988 110.345 39.708C110.513 39.428 110.693 39.112 110.885 38.76C111.077 38.4 111.277 38.04 111.485 37.68C111.693 37.312 111.901 36.976 112.109 36.672C112.325 36.36 112.533 36.112 112.733 35.928C112.941 35.736 113.133 35.64 113.309 35.64C113.565 35.64 113.781 35.72 113.957 35.88C114.141 36.032 114.281 36.304 114.377 36.696C114.481 37.08 114.533 37.624 114.533 38.328C114.533 38.704 114.569 39.056 114.641 39.384C114.721 39.712 114.845 39.976 115.013 40.176C115.189 40.368 115.413 40.464 115.685 40.464C116.093 40.464 116.457 40.392 116.777 40.248C117.097 40.096 117.373 39.928 117.605 39.744C117.845 39.552 118.045 39.384 118.205 39.24C118.365 39.088 118.489 39.012 118.577 39.012C118.761 39.012 118.853 39.108 118.853 39.3C118.853 39.38 118.793 39.508 118.673 39.684C118.561 39.852 118.401 40.044 118.193 40.26C117.993 40.468 117.761 40.672 117.497 40.872C117.241 41.064 116.965 41.224 116.669 41.352C116.381 41.48 116.089 41.544 115.793 41.544C115.241 41.544 114.789 41.436 114.437 41.22C114.093 41.004 113.837 40.648 113.669 40.152C113.509 39.656 113.429 38.992 113.429 38.16C113.429 37.704 113.401 37.372 113.345 37.164C113.297 36.948 113.205 36.804 113.069 36.732C112.973 36.9 112.849 37.14 112.697 37.452C112.545 37.756 112.369 38.096 112.169 38.472C111.977 38.848 111.773 39.228 111.557 39.612C111.349 39.988 111.137 40.336 110.921 40.656C110.705 40.976 110.497 41.236 110.297 41.436C110.097 41.628 109.917 41.724 109.757 41.724ZM118.719 42.312C118.415 42.312 118.163 42.172 117.963 41.892C117.771 41.604 117.675 41.232 117.675 40.776C117.675 40.352 117.779 39.932 117.987 39.516C118.203 39.1 118.487 38.7 118.839 38.316C119.191 37.932 119.575 37.58 119.991 37.26C120.407 36.932 120.823 36.648 121.239 36.408C121.663 36.168 122.051 35.98 122.403 35.844C122.755 35.708 123.035 35.64 123.243 35.64C123.355 35.64 123.447 35.664 123.519 35.712C123.591 35.752 123.627 35.828 123.627 35.94C123.627 36.012 123.599 36.08 123.543 36.144C123.551 36.144 123.559 36.144 123.567 36.144C123.743 36.144 123.831 36.248 123.831 36.456C123.831 36.528 123.803 36.676 123.747 36.9C123.691 37.116 123.627 37.388 123.555 37.716C123.483 38.044 123.419 38.408 123.363 38.808C123.307 39.2 123.279 39.6 123.279 40.008C123.279 40.352 123.411 40.524 123.675 40.524C123.971 40.524 124.271 40.456 124.575 40.32C124.879 40.184 125.175 40.02 125.463 39.828C125.751 39.628 126.015 39.432 126.255 39.24C126.495 39.04 126.699 38.872 126.867 38.736C127.035 38.6 127.155 38.532 127.227 38.532C127.291 38.532 127.347 38.552 127.395 38.592C127.443 38.632 127.467 38.696 127.467 38.784C127.467 38.864 127.387 39.008 127.227 39.216C127.067 39.424 126.855 39.66 126.591 39.924C126.327 40.188 126.031 40.444 125.703 40.692C125.375 40.94 125.039 41.144 124.695 41.304C124.351 41.464 124.023 41.544 123.711 41.544C123.471 41.544 123.251 41.472 123.051 41.328C122.859 41.176 122.703 40.92 122.583 40.56C122.471 40.2 122.415 39.704 122.415 39.072V38.772C122.023 39.42 121.611 40.012 121.179 40.548C120.755 41.084 120.331 41.512 119.907 41.832C119.491 42.152 119.095 42.312 118.719 42.312ZM123.015 36.504C122.975 36.52 122.919 36.544 122.847 36.576C122.479 36.744 122.095 36.952 121.695 37.2C121.303 37.448 120.919 37.724 120.543 38.028C120.175 38.332 119.843 38.648 119.547 38.976C119.251 39.304 119.015 39.636 118.839 39.972C118.663 40.308 118.575 40.636 118.575 40.956C118.575 41.06 118.595 41.14 118.635 41.196C118.683 41.252 118.763 41.28 118.875 41.28C119.035 41.28 119.243 41.18 119.499 40.98C119.755 40.772 120.035 40.5 120.339 40.164C120.651 39.828 120.963 39.456 121.275 39.048C121.587 38.64 121.883 38.228 122.163 37.812C122.451 37.396 122.699 37.012 122.907 36.66C122.939 36.604 122.975 36.552 123.015 36.504ZM131.026 38.16C130.81 38.144 130.71 38.004 130.726 37.74C130.734 37.676 130.778 37.6 130.858 37.512C130.938 37.416 131.03 37.364 131.134 37.356C131.382 37.332 131.686 37.296 132.046 37.248C132.414 37.192 132.818 37.128 133.258 37.056C133.338 36.664 133.434 36.252 133.546 35.82C133.658 35.388 133.782 34.968 133.918 34.56C134.054 34.144 134.198 33.768 134.35 33.432C134.502 33.096 134.662 32.832 134.83 32.64C134.918 32.552 134.998 32.492 135.07 32.46C135.142 32.42 135.206 32.4 135.262 32.4C135.374 32.4 135.462 32.448 135.526 32.544C135.598 32.64 135.634 32.748 135.634 32.868C135.634 32.932 135.622 32.996 135.598 33.06C135.438 33.508 135.266 34.06 135.082 34.716C134.898 35.372 134.702 36.088 134.494 36.864C135.23 36.744 135.966 36.616 136.702 36.48C137.438 36.344 138.07 36.22 138.598 36.108C138.75 36.044 138.866 36.056 138.946 36.144C139.034 36.232 139.078 36.32 139.078 36.408C139.078 36.52 139.046 36.604 138.982 36.66C138.926 36.716 138.866 36.764 138.802 36.804L138.79 36.816C138.63 36.88 138.39 36.956 138.07 37.044C137.75 37.124 137.382 37.212 136.966 37.308C136.55 37.396 136.106 37.484 135.634 37.572C135.17 37.66 134.71 37.74 134.254 37.812C134.07 38.516 133.882 39.24 133.69 39.984C133.506 40.72 133.322 41.444 133.138 42.156C133.058 42.444 132.966 42.624 132.862 42.696C132.766 42.776 132.662 42.816 132.55 42.816C132.422 42.816 132.31 42.768 132.214 42.672C132.126 42.576 132.114 42.38 132.178 42.084L133.054 37.992C132.574 38.064 132.15 38.116 131.782 38.148C131.422 38.18 131.17 38.184 131.026 38.16ZM139.373 42.12C138.901 42.12 138.529 41.94 138.257 41.58C137.985 41.22 137.849 40.752 137.849 40.176C137.849 39.968 137.877 39.748 137.933 39.516C137.997 39.276 138.077 39.06 138.173 38.868C138.117 38.812 138.073 38.736 138.041 38.64C138.009 38.536 137.993 38.408 137.993 38.256C137.993 37.784 138.073 37.352 138.233 36.96C138.393 36.568 138.605 36.228 138.869 35.94C139.133 35.644 139.425 35.416 139.745 35.256C140.073 35.096 140.405 35.016 140.741 35.016C141.293 35.016 141.741 35.216 142.085 35.616C142.429 36.008 142.601 36.608 142.601 37.416C142.601 37.84 142.537 38.272 142.409 38.712C142.289 39.152 142.121 39.576 141.905 39.984C141.697 40.392 141.453 40.756 141.173 41.076C140.901 41.396 140.609 41.652 140.297 41.844C139.993 42.028 139.685 42.12 139.373 42.12ZM138.965 38.46C139.013 38.524 139.037 38.608 139.037 38.712C139.037 38.832 139.013 38.952 138.965 39.072C138.925 39.192 138.881 39.356 138.833 39.564C138.785 39.772 138.761 40.068 138.761 40.452C138.761 40.836 138.913 41.028 139.217 41.028C139.553 41.028 139.865 40.896 140.153 40.632C140.441 40.36 140.697 40.012 140.921 39.588C141.145 39.164 141.317 38.712 141.437 38.232C141.565 37.744 141.629 37.284 141.629 36.852C141.629 36.572 141.577 36.376 141.473 36.264C141.369 36.144 141.181 36.084 140.909 36.084C140.629 36.084 140.337 36.18 140.033 36.372C139.737 36.556 139.489 36.808 139.289 37.128C139.089 37.448 138.989 37.808 138.989 38.208C138.989 38.296 138.981 38.38 138.965 38.46ZM151.753 45.084C151.353 45.084 150.985 45.056 150.649 45C150.321 44.952 149.997 44.872 149.677 44.76C149.357 44.656 149.009 44.52 148.633 44.352C148.521 44.296 148.421 44.228 148.333 44.148C148.245 44.076 148.201 43.992 148.201 43.896C148.201 43.776 148.277 43.648 148.429 43.512C148.573 43.384 148.709 43.32 148.837 43.32C148.973 43.32 149.141 43.368 149.341 43.464C149.549 43.56 149.789 43.672 150.061 43.8C150.333 43.936 150.633 44.052 150.961 44.148C151.297 44.244 151.657 44.292 152.041 44.292C152.457 44.292 152.849 44.12 153.217 43.776C153.585 43.432 153.885 42.936 154.117 42.288C154.349 41.648 154.465 40.876 154.465 39.972C154.465 39.7 154.457 39.4 154.441 39.072C154.433 38.736 154.417 38.384 154.393 38.016C154.201 38.432 153.985 38.844 153.745 39.252C153.513 39.66 153.269 40.028 153.013 40.356C152.765 40.684 152.505 40.948 152.233 41.148C151.969 41.34 151.701 41.436 151.429 41.436C151.085 41.436 150.837 41.348 150.685 41.172C150.533 40.996 150.457 40.724 150.457 40.356C150.457 39.972 150.485 39.556 150.541 39.108C150.597 38.66 150.669 38.208 150.757 37.752C150.853 37.288 150.965 36.848 151.093 36.432C151.221 36.016 151.357 35.656 151.501 35.352C151.581 35.192 151.701 35.112 151.861 35.112C151.973 35.112 152.081 35.172 152.185 35.292C152.297 35.404 152.353 35.552 152.353 35.736C152.353 35.88 152.321 36.084 152.257 36.348C152.193 36.612 152.113 36.912 152.017 37.248C151.921 37.584 151.825 37.936 151.729 38.304C151.633 38.664 151.553 39.02 151.489 39.372C151.425 39.716 151.393 40.032 151.393 40.32C151.393 40.44 151.473 40.5 151.633 40.5C151.721 40.5 151.845 40.42 152.005 40.26C152.173 40.092 152.357 39.876 152.557 39.612C152.765 39.34 152.973 39.044 153.181 38.724C153.397 38.396 153.605 38.072 153.805 37.752C154.005 37.424 154.177 37.124 154.321 36.852C154.313 36.788 154.309 36.728 154.309 36.672C154.309 36.616 154.309 36.564 154.309 36.516C154.309 36.124 154.349 35.88 154.429 35.784C154.517 35.68 154.629 35.628 154.765 35.628C154.997 35.628 155.161 35.68 155.257 35.784C155.353 35.888 155.401 36.068 155.401 36.324C155.401 36.42 155.389 36.524 155.365 36.636C155.341 36.74 155.301 36.892 155.245 37.092C155.309 37.724 155.361 38.292 155.401 38.796C155.449 39.3 155.473 39.808 155.473 40.32C155.473 41.288 155.317 42.128 155.005 42.84C154.701 43.552 154.269 44.104 153.709 44.496C153.157 44.888 152.505 45.084 151.753 45.084ZM159.119 42.12C158.647 42.12 158.275 41.94 158.003 41.58C157.731 41.22 157.595 40.752 157.595 40.176C157.595 39.968 157.623 39.748 157.679 39.516C157.743 39.276 157.823 39.06 157.919 38.868C157.863 38.812 157.819 38.736 157.787 38.64C157.755 38.536 157.739 38.408 157.739 38.256C157.739 37.784 157.819 37.352 157.979 36.96C158.139 36.568 158.351 36.228 158.615 35.94C158.879 35.644 159.171 35.416 159.491 35.256C159.819 35.096 160.151 35.016 160.487 35.016C161.039 35.016 161.487 35.216 161.831 35.616C162.175 36.008 162.347 36.608 162.347 37.416C162.347 37.84 162.283 38.272 162.155 38.712C162.035 39.152 161.867 39.576 161.651 39.984C161.443 40.392 161.199 40.756 160.919 41.076C160.647 41.396 160.355 41.652 160.043 41.844C159.739 42.028 159.431 42.12 159.119 42.12ZM158.711 38.46C158.759 38.524 158.783 38.608 158.783 38.712C158.783 38.832 158.759 38.952 158.711 39.072C158.671 39.192 158.627 39.356 158.579 39.564C158.531 39.772 158.507 40.068 158.507 40.452C158.507 40.836 158.659 41.028 158.963 41.028C159.299 41.028 159.611 40.896 159.899 40.632C160.187 40.36 160.443 40.012 160.667 39.588C160.891 39.164 161.063 38.712 161.183 38.232C161.311 37.744 161.375 37.284 161.375 36.852C161.375 36.572 161.323 36.376 161.219 36.264C161.115 36.144 160.927 36.084 160.655 36.084C160.375 36.084 160.083 36.18 159.779 36.372C159.483 36.556 159.235 36.808 159.035 37.128C158.835 37.448 158.735 37.808 158.735 38.208C158.735 38.296 158.727 38.38 158.711 38.46ZM167.484 42.288C167.348 42.288 167.232 42.228 167.136 42.108C167.04 41.988 166.992 41.812 166.992 41.58C166.992 41.308 167.032 40.92 167.112 40.416C167.2 39.912 167.328 39.244 167.496 38.412C167.28 38.924 167.04 39.408 166.776 39.864C166.52 40.32 166.248 40.692 165.96 40.98C165.672 41.268 165.376 41.412 165.072 41.412C164.776 41.412 164.512 41.296 164.28 41.064C164.056 40.832 163.944 40.424 163.944 39.84C163.944 39.512 163.972 39.144 164.028 38.736C164.084 38.32 164.156 37.908 164.244 37.5C164.332 37.092 164.42 36.728 164.508 36.408C164.596 36.08 164.676 35.84 164.748 35.688C164.804 35.56 164.86 35.476 164.916 35.436C164.972 35.388 165.048 35.364 165.144 35.364C165.256 35.364 165.376 35.412 165.504 35.508C165.632 35.604 165.696 35.764 165.696 35.988C165.696 36.044 165.668 36.176 165.612 36.384C165.564 36.584 165.5 36.832 165.42 37.128C165.348 37.416 165.272 37.728 165.192 38.064C165.112 38.4 165.044 38.736 164.988 39.072C164.94 39.408 164.916 39.716 164.916 39.996C164.916 40.148 164.932 40.272 164.964 40.368C164.996 40.464 165.076 40.512 165.204 40.512C165.316 40.512 165.456 40.4 165.624 40.176C165.8 39.952 165.988 39.656 166.188 39.288C166.396 38.912 166.608 38.496 166.824 38.04C167.048 37.584 167.264 37.116 167.472 36.636C167.688 36.156 167.884 35.7 168.06 35.268C168.124 35.124 168.192 35.036 168.264 35.004C168.336 34.964 168.416 34.944 168.504 34.944C168.648 34.944 168.776 35.004 168.888 35.124C169.008 35.236 169.068 35.384 169.068 35.568C169.068 35.688 169.044 35.896 168.996 36.192C168.956 36.488 168.896 36.836 168.816 37.236C168.744 37.628 168.66 38.044 168.564 38.484C168.476 38.924 168.388 39.36 168.3 39.792C168.212 40.216 168.128 40.604 168.048 40.956C167.976 41.308 167.916 41.592 167.868 41.808C167.828 42.008 167.772 42.136 167.7 42.192C167.636 42.256 167.564 42.288 167.484 42.288ZM171.072 42.228C170.944 42.228 170.836 42.176 170.748 42.072C170.66 41.968 170.616 41.824 170.616 41.64C170.616 41.504 170.644 41.28 170.7 40.968C170.764 40.648 170.832 40.276 170.904 39.852C170.984 39.428 171.052 38.988 171.108 38.532C171.164 38.068 171.192 37.624 171.192 37.2C171.192 36.992 171.244 36.84 171.348 36.744C171.46 36.64 171.584 36.588 171.72 36.588C171.848 36.588 171.944 36.668 172.008 36.828C172.072 36.988 172.084 37.308 172.044 37.788C172.412 36.972 172.816 36.316 173.256 35.82C173.704 35.316 174.148 34.956 174.588 34.74C175.028 34.516 175.424 34.404 175.776 34.404C176.008 34.404 176.176 34.452 176.28 34.548C176.392 34.636 176.448 34.736 176.448 34.848C176.448 35 176.384 35.12 176.256 35.208C176.136 35.288 175.924 35.384 175.62 35.496C175.268 35.632 174.944 35.792 174.648 35.976C174.36 36.152 174.084 36.384 173.82 36.672C173.564 36.96 173.312 37.328 173.064 37.776C172.816 38.216 172.568 38.76 172.32 39.408C172.072 40.056 171.808 40.836 171.528 41.748C171.48 41.924 171.416 42.048 171.336 42.12C171.264 42.192 171.176 42.228 171.072 42.228ZM182.665 43.068C182.529 43.068 182.421 43.02 182.341 42.924C182.261 42.828 182.221 42.668 182.221 42.444C182.221 42.044 182.241 41.632 182.281 41.208C182.329 40.776 182.353 40.376 182.353 40.008C182.353 39.168 182.277 38.476 182.125 37.932C181.981 37.38 181.665 37.008 181.177 36.816C181.065 36.776 180.985 36.732 180.937 36.684C180.881 36.636 180.853 36.56 180.853 36.456C180.853 36.344 180.897 36.252 180.985 36.18C181.065 36.108 181.217 36.072 181.441 36.072C181.625 36.072 181.869 36.08 182.173 36.096C182.477 36.112 182.805 36.128 183.157 36.144C183.405 35.256 183.685 34.52 183.997 33.936C184.309 33.352 184.649 32.892 185.017 32.556C185.393 32.22 185.789 31.98 186.205 31.836C186.629 31.692 187.069 31.62 187.525 31.62C187.725 31.62 187.853 31.648 187.909 31.704C187.965 31.752 187.993 31.828 187.993 31.932C187.993 32.06 187.953 32.196 187.873 32.34C187.793 32.476 187.629 32.564 187.381 32.604C186.837 32.7 186.353 32.876 185.929 33.132C185.505 33.388 185.137 33.76 184.825 34.248C184.513 34.728 184.253 35.36 184.045 36.144C184.813 36.128 185.473 36.088 186.025 36.024C186.577 35.952 187.037 35.876 187.405 35.796C187.781 35.708 188.081 35.636 188.305 35.58C188.529 35.516 188.701 35.484 188.821 35.484C188.957 35.484 189.041 35.52 189.073 35.592C189.105 35.664 189.121 35.74 189.121 35.82C189.121 35.972 188.977 36.12 188.689 36.264C188.401 36.4 188.021 36.524 187.549 36.636C187.085 36.74 186.573 36.824 186.013 36.888C185.453 36.952 184.901 36.984 184.357 36.984C184.269 36.984 184.181 36.984 184.093 36.984C184.013 36.984 183.929 36.984 183.841 36.984C183.825 37.04 183.813 37.1 183.805 37.164C183.725 37.628 183.645 38.12 183.565 38.64C183.493 39.152 183.425 39.656 183.361 40.152C183.305 40.64 183.261 41.084 183.229 41.484C183.197 41.884 183.181 42.204 183.181 42.444C183.181 42.644 183.133 42.796 183.037 42.9C182.941 43.012 182.817 43.068 182.665 43.068ZM182.953 36.936C182.721 36.912 182.505 36.88 182.305 36.84C182.409 36.96 182.497 37.1 182.569 37.26C182.649 37.42 182.717 37.592 182.773 37.776C182.829 37.48 182.889 37.2 182.953 36.936ZM188.803 42.12C188.331 42.12 187.959 41.94 187.687 41.58C187.415 41.22 187.279 40.752 187.279 40.176C187.279 39.968 187.307 39.748 187.363 39.516C187.427 39.276 187.507 39.06 187.603 38.868C187.547 38.812 187.503 38.736 187.471 38.64C187.439 38.536 187.423 38.408 187.423 38.256C187.423 37.784 187.503 37.352 187.663 36.96C187.823 36.568 188.035 36.228 188.299 35.94C188.563 35.644 188.855 35.416 189.175 35.256C189.503 35.096 189.835 35.016 190.171 35.016C190.723 35.016 191.171 35.216 191.515 35.616C191.859 36.008 192.031 36.608 192.031 37.416C192.031 37.84 191.967 38.272 191.839 38.712C191.719 39.152 191.551 39.576 191.335 39.984C191.127 40.392 190.883 40.756 190.603 41.076C190.331 41.396 190.039 41.652 189.727 41.844C189.423 42.028 189.115 42.12 188.803 42.12ZM188.395 38.46C188.443 38.524 188.467 38.608 188.467 38.712C188.467 38.832 188.443 38.952 188.395 39.072C188.355 39.192 188.311 39.356 188.263 39.564C188.215 39.772 188.191 40.068 188.191 40.452C188.191 40.836 188.343 41.028 188.647 41.028C188.983 41.028 189.295 40.896 189.583 40.632C189.871 40.36 190.127 40.012 190.351 39.588C190.575 39.164 190.747 38.712 190.867 38.232C190.995 37.744 191.059 37.284 191.059 36.852C191.059 36.572 191.007 36.376 190.903 36.264C190.799 36.144 190.611 36.084 190.339 36.084C190.059 36.084 189.767 36.18 189.463 36.372C189.167 36.556 188.919 36.808 188.719 37.128C188.519 37.448 188.419 37.808 188.419 38.208C188.419 38.296 188.411 38.38 188.395 38.46ZM193.759 42.228C193.631 42.228 193.523 42.176 193.435 42.072C193.347 41.968 193.303 41.824 193.303 41.64C193.303 41.504 193.331 41.28 193.387 40.968C193.451 40.648 193.519 40.276 193.591 39.852C193.671 39.428 193.739 38.988 193.795 38.532C193.851 38.068 193.879 37.624 193.879 37.2C193.879 36.992 193.931 36.84 194.035 36.744C194.147 36.64 194.271 36.588 194.407 36.588C194.535 36.588 194.631 36.668 194.695 36.828C194.759 36.988 194.771 37.308 194.731 37.788C195.099 36.972 195.503 36.316 195.943 35.82C196.391 35.316 196.835 34.956 197.275 34.74C197.715 34.516 198.111 34.404 198.463 34.404C198.695 34.404 198.863 34.452 198.967 34.548C199.079 34.636 199.135 34.736 199.135 34.848C199.135 35 199.071 35.12 198.943 35.208C198.823 35.288 198.611 35.384 198.307 35.496C197.955 35.632 197.631 35.792 197.335 35.976C197.047 36.152 196.771 36.384 196.507 36.672C196.251 36.96 195.999 37.328 195.751 37.776C195.503 38.216 195.255 38.76 195.007 39.408C194.759 40.056 194.495 40.836 194.215 41.748C194.167 41.924 194.103 42.048 194.023 42.12C193.951 42.192 193.863 42.228 193.759 42.228ZM203.359 36.828C203.359 37.084 203.279 37.336 203.119 37.584C202.959 37.824 202.747 38.056 202.483 38.28C202.219 38.496 201.927 38.7 201.607 38.892C201.287 39.084 200.967 39.252 200.647 39.396C200.327 39.54 200.035 39.656 199.771 39.744C199.707 40.056 199.675 40.332 199.675 40.572C199.675 40.724 199.711 40.832 199.783 40.896C199.855 40.96 199.967 40.992 200.119 40.992C200.455 40.992 200.811 40.932 201.187 40.812C201.563 40.692 201.947 40.536 202.339 40.344C202.731 40.152 203.107 39.948 203.467 39.732C203.827 39.516 204.155 39.312 204.451 39.12C204.755 38.928 205.007 38.772 205.207 38.652C205.407 38.532 205.539 38.472 205.603 38.472C205.699 38.472 205.771 38.504 205.819 38.568C205.875 38.624 205.903 38.692 205.903 38.772C205.903 38.836 205.803 38.96 205.603 39.144C205.411 39.328 205.151 39.544 204.823 39.792C204.495 40.032 204.127 40.28 203.719 40.536C203.311 40.792 202.887 41.032 202.447 41.256C202.015 41.48 201.595 41.66 201.187 41.796C200.787 41.932 200.427 42 200.107 42C199.691 42 199.367 41.844 199.135 41.532C198.903 41.22 198.787 40.736 198.787 40.08C198.787 39.64 198.843 39.196 198.955 38.748C199.075 38.3 199.235 37.872 199.435 37.464C199.643 37.048 199.871 36.68 200.119 36.36C200.375 36.032 200.643 35.776 200.923 35.592C201.203 35.4 201.475 35.304 201.739 35.304C202.243 35.304 202.639 35.444 202.927 35.724C203.215 36.004 203.359 36.372 203.359 36.828ZM200.023 38.82C200.271 38.668 200.527 38.508 200.791 38.34C201.055 38.172 201.299 38 201.523 37.824C201.747 37.648 201.927 37.464 202.063 37.272C202.207 37.072 202.279 36.868 202.279 36.66C202.279 36.364 202.119 36.216 201.799 36.216C201.599 36.216 201.387 36.344 201.163 36.6C200.947 36.848 200.739 37.172 200.539 37.572C200.339 37.972 200.167 38.388 200.023 38.82ZM206.707 42.264C206.531 42.264 206.395 42.212 206.299 42.108C206.211 42.012 206.167 41.9 206.167 41.772C206.167 41.66 206.215 41.556 206.311 41.46C206.415 41.356 206.555 41.264 206.731 41.184C207.051 41.016 207.351 40.848 207.631 40.68C207.919 40.512 208.151 40.332 208.327 40.14C208.503 39.948 208.591 39.744 208.591 39.528C208.591 39.344 208.531 39.204 208.411 39.108C208.291 39.004 208.127 38.952 207.919 38.952C207.799 38.952 207.631 38.976 207.415 39.024C207.199 39.064 206.963 39.112 206.707 39.168C206.459 39.216 206.215 39.264 205.975 39.312C205.735 39.352 205.531 39.372 205.363 39.372C205.059 39.372 204.831 39.3 204.679 39.156C204.527 39.004 204.451 38.8 204.451 38.544C204.451 38.416 204.527 38.224 204.679 37.968C204.831 37.712 205.031 37.428 205.279 37.116C205.535 36.796 205.815 36.476 206.119 36.156C206.423 35.836 206.731 35.54 207.043 35.268C207.363 34.996 207.659 34.776 207.931 34.608C208.211 34.44 208.443 34.356 208.627 34.356C208.811 34.356 208.951 34.416 209.047 34.536C209.143 34.656 209.191 34.808 209.191 34.992C209.191 35.136 209.167 35.26 209.119 35.364C209.071 35.46 208.971 35.536 208.819 35.592C208.675 35.648 208.451 35.68 208.147 35.688C207.835 35.936 207.503 36.22 207.151 36.54C206.807 36.852 206.491 37.176 206.203 37.512C205.923 37.84 205.719 38.156 205.591 38.46C205.855 38.372 206.175 38.296 206.551 38.232C206.935 38.16 207.323 38.124 207.715 38.124C208.331 38.124 208.787 38.264 209.083 38.544C209.387 38.816 209.539 39.176 209.539 39.624C209.539 39.912 209.447 40.212 209.263 40.524C209.087 40.828 208.855 41.112 208.567 41.376C208.279 41.64 207.971 41.852 207.643 42.012C207.315 42.18 207.003 42.264 206.707 42.264ZM210.011 38.16C209.795 38.144 209.695 38.004 209.711 37.74C209.719 37.676 209.763 37.6 209.843 37.512C209.923 37.416 210.015 37.364 210.119 37.356C210.367 37.332 210.671 37.296 211.031 37.248C211.399 37.192 211.803 37.128 212.243 37.056C212.323 36.664 212.419 36.252 212.531 35.82C212.643 35.388 212.767 34.968 212.903 34.56C213.039 34.144 213.183 33.768 213.335 33.432C213.487 33.096 213.647 32.832 213.815 32.64C213.903 32.552 213.983 32.492 214.055 32.46C214.127 32.42 214.191 32.4 214.247 32.4C214.359 32.4 214.447 32.448 214.511 32.544C214.583 32.64 214.619 32.748 214.619 32.868C214.619 32.932 214.607 32.996 214.583 33.06C214.423 33.508 214.251 34.06 214.067 34.716C213.883 35.372 213.687 36.088 213.479 36.864C214.215 36.744 214.951 36.616 215.687 36.48C216.423 36.344 217.055 36.22 217.583 36.108C217.735 36.044 217.851 36.056 217.931 36.144C218.019 36.232 218.063 36.32 218.063 36.408C218.063 36.52 218.031 36.604 217.967 36.66C217.911 36.716 217.851 36.764 217.787 36.804L217.775 36.816C217.615 36.88 217.375 36.956 217.055 37.044C216.735 37.124 216.367 37.212 215.951 37.308C215.535 37.396 215.091 37.484 214.619 37.572C214.155 37.66 213.695 37.74 213.239 37.812C213.055 38.516 212.867 39.24 212.675 39.984C212.491 40.72 212.307 41.444 212.123 42.156C212.043 42.444 211.951 42.624 211.847 42.696C211.751 42.776 211.647 42.816 211.535 42.816C211.407 42.816 211.295 42.768 211.199 42.672C211.111 42.576 211.099 42.38 211.163 42.084L212.039 37.992C211.559 38.064 211.135 38.116 210.767 38.148C210.407 38.18 210.155 38.184 210.011 38.16Z" fill="#757575"/>
</svg>
